<svg xmlns="http://www.w3.org/2000/svg" width="48" height="48"><path fill="#e81e63" d="M2162.66 1587.917a24 24 0 0 0-24-24 24 24 0 0 0-24 24 24 24 0 0 0 24 24 24 24 0 0 0 24-24z" transform="translate(-2114.66 -1563.917)"/><g fill="#fff"><path fill-rule="evenodd" d="m2006.693-233.105-13.748 4.726v4.443l13.748-4.726V-231.816z" color="#000" enable-background="accumulate" font-family="sans-serif" font-weight="400" transform="translate(-1970.799 260.786)" style="line-height:normal;text-indent:0;text-align:start;text-decoration-line:none;text-decoration-style:solid;text-decoration-color:#000;text-transform:none;white-space:normal;isolation:auto;mix-blend-mode:normal;solid-color:#000;solid-opacity:1" overflow="visible"/><path d="m1997.244 770.725 10.408 15.145-15.01 5.16-10.357-15.162zM1981.945 777.14l9.998 14.642v3.738l-9.998-14.546z" style="line-height:normal;text-indent:0;text-align:start;text-decoration-line:none;text-decoration-style:solid;text-decoration-color:#000;text-transform:none;white-space:normal;isolation:auto;mix-blend-mode:normal;solid-color:#000;solid-opacity:1" fill-rule="evenodd" color="#000" enable-background="accumulate" font-family="sans-serif" font-weight="400" overflow="visible" transform="translate(-1970.799 -759.576)"/></g></svg>